<?xml version="1.0" encoding="UTF-8" standalone="no"?>
<!DOCTYPE svg PUBLIC "-//W3C//DTD SVG 1.1//EN" "http://www.w3.org/Graphics/SVG/1.1/DTD/svg11.dtd">
<svg width="100%" height="100%" viewBox="0 0 680 680" version="1.1" xmlns="http://www.w3.org/2000/svg" xmlns:xlink="http://www.w3.org/1999/xlink" xml:space="preserve" xmlns:serif="http://www.serif.com/" style="fill-rule:evenodd;clip-rule:evenodd;">
    <g transform="matrix(1.33002,0,0,1.33002,-112.205,-112.205)">
        <path d="M590,150.15L590,529.85C590,563.048 563.048,590 529.85,590L150.15,590C116.952,590 90,563.048 90,529.85L90,150.15C90,116.952 116.952,90 150.15,90L529.85,90C563.048,90 590,116.952 590,150.15Z" style="fill:rgb(28,43,58);"/>
        <path d="M530,325.037L530,534.963C530,543.262 523.262,550 514.963,550L165.037,550C156.738,550 150,543.262 150,534.963L150,325.037C150,316.738 156.738,310 165.037,310L514.963,310C523.262,310 530,316.738 530,325.037Z" style="fill:rgb(42,74,107);"/>
        <path d="M530,285.037L530,324.963C530,333.262 523.262,340 514.963,340L165.037,340C156.738,340 150,333.262 150,324.963L150,285.037C150,276.738 156.738,270 165.037,270L514.963,270C523.262,270 530,276.738 530,285.037Z" style="fill:rgb(46,84,128);"/>
        <rect x="150" y="310" width="380" height="30" style="fill:rgb(46,84,128);"/>
        <circle cx="340" cy="293" r="14" style="fill:rgb(30,58,85);"/>
        <circle cx="340" cy="293" r="7" style="fill:rgb(255,209,102);"/>
        <path d="M502,344.015L502,379.985C502,383.305 499.305,386 495.985,386L184.015,386C180.695,386 178,383.305 178,379.985L178,344.015C178,340.695 180.695,338 184.015,338L495.985,338C499.305,338 502,340.695 502,344.015Z" style="fill:rgb(232,115,74);"/>
        <path d="M280,352.256L280,357.744C280,358.989 278.989,360 277.744,360L192.256,360C191.011,360 190,358.989 190,357.744L190,352.256C190,351.011 191.011,350 192.256,350L277.744,350C278.989,350 280,351.011 280,352.256Z" style="fill:white;fill-opacity:0.9;"/>
        <path d="M250,367.256L250,370.744C250,371.989 248.989,373 247.744,373L192.256,373C191.011,373 190,371.989 190,370.744L190,367.256C190,366.011 191.011,365 192.256,365L247.744,365C248.989,365 250,366.011 250,367.256Z" style="fill:white;fill-opacity:0.5;"/>
        <path d="M490,353.007L490,364.993C490,366.652 488.652,368 486.993,368L463.007,368C461.348,368 460,366.652 460,364.993L460,353.007C460,351.348 461.348,350 463.007,350L486.993,350C488.652,350 490,351.348 490,353.007Z" style="fill:rgb(28,43,58);fill-opacity:0.3;"/>
        <g transform="matrix(1,0,0,1,475,363)">
            <text x="-7.944px" y="0px" style="font-family:'Arial-BoldMT', 'Arial', sans-serif;font-weight:700;font-size:11px;fill:white;">AD</text>
        </g>
        <path d="M502,404.015L502,439.985C502,443.305 499.305,446 495.985,446L184.015,446C180.695,446 178,443.305 178,439.985L178,404.015C178,400.695 180.695,398 184.015,398L495.985,398C499.305,398 502,400.695 502,404.015Z" style="fill:rgb(74,172,232);"/>
        <path d="M300,412.256L300,417.744C300,418.989 298.989,420 297.744,420L192.256,420C191.011,420 190,418.989 190,417.744L190,412.256C190,411.011 191.011,410 192.256,410L297.744,410C298.989,410 300,411.011 300,412.256Z" style="fill:white;fill-opacity:0.9;"/>
        <path d="M265,427.256L265,430.744C265,431.989 263.989,433 262.744,433L192.256,433C191.011,433 190,431.989 190,430.744L190,427.256C190,426.011 191.011,425 192.256,425L262.744,425C263.989,425 265,426.011 265,427.256Z" style="fill:white;fill-opacity:0.5;"/>
        <path d="M490,413.007L490,424.993C490,426.652 488.652,428 486.993,428L463.007,428C461.348,428 460,426.652 460,424.993L460,413.007C460,411.348 461.348,410 463.007,410L486.993,410C488.652,410 490,411.348 490,413.007Z" style="fill:rgb(28,43,58);fill-opacity:0.3;"/>
        <g transform="matrix(1,0,0,1,475,423)">
            <text x="-7.944px" y="0px" style="font-family:'Arial-BoldMT', 'Arial', sans-serif;font-weight:700;font-size:11px;fill:white;">AD</text>
        </g>
        <path d="M502,464.015L502,499.985C502,503.305 499.305,506 495.985,506L184.015,506C180.695,506 178,503.305 178,499.985L178,464.015C178,460.695 180.695,458 184.015,458L495.985,458C499.305,458 502,460.695 502,464.015Z" style="fill:rgb(42,74,107);stroke:rgb(74,172,232);stroke-width:2px;"/>
        <path d="M270,472.256L270,477.744C270,478.989 268.989,480 267.744,480L192.256,480C191.011,480 190,478.989 190,477.744L190,472.256C190,471.011 191.011,470 192.256,470L267.744,470C268.989,470 270,471.011 270,472.256Z" style="fill:rgb(74,172,232);fill-opacity:0.8;"/>
        <path d="M245,487.256L245,490.744C245,491.989 243.989,493 242.744,493L192.256,493C191.011,493 190,491.989 190,490.744L190,487.256C190,486.011 191.011,485 192.256,485L242.744,485C243.989,485 245,486.011 245,487.256Z" style="fill:rgb(74,172,232);fill-opacity:0.4;"/>
        <path d="M490,473.007L490,484.993C490,486.652 488.652,488 486.993,488L463.007,488C461.348,488 460,486.652 460,484.993L460,473.007C460,471.348 461.348,470 463.007,470L486.993,470C488.652,470 490,471.348 490,473.007Z" style="fill:rgb(74,172,232);fill-opacity:0.4;"/>
        <g transform="matrix(1,0,0,1,475,483)">
            <text x="-7.944px" y="0px" style="font-family:'Arial-BoldMT', 'Arial', sans-serif;font-weight:700;font-size:11px;fill:rgb(74,172,232);">AD</text>
        </g>
        <path d="M485,158.526L485,237.474C485,243.283 480.283,248 474.474,248L205.526,248C199.717,248 195,243.283 195,237.474L195,158.526C195,152.717 199.717,148 205.526,148L474.474,148C480.283,148 485,152.717 485,158.526Z" style="fill:rgb(0,201,167);"/>
        <rect x="195" y="228" width="290" height="12" style="fill:rgb(0,158,130);"/>
        <rect x="195" y="236" width="290" height="12" style="fill:rgb(0,201,167);"/>
        <g transform="matrix(1,0,0,1,340,213)">
            <text x="-42.885px" y="0px" style="font-family:'Consolas-Bold', 'Consolas', monospace;font-weight:700;font-size:52px;fill:rgb(28,43,58);">{ }</text>
        </g>
        <path d="M260,248L260,268" style="fill:none;fill-rule:nonzero;stroke:rgb(0,201,167);stroke-width:5px;stroke-linecap:round;"/>
        <path d="M340,248L340,268" style="fill:none;fill-rule:nonzero;stroke:rgb(0,201,167);stroke-width:5px;stroke-linecap:round;"/>
        <path d="M420,248L420,268" style="fill:none;fill-rule:nonzero;stroke:rgb(0,201,167);stroke-width:5px;stroke-linecap:round;"/>
    </g>
</svg>
